<svg width="24" height="24" viewBox="0 0 24 24" fill="none" xmlns="http://www.w3.org/2000/svg">
<path d="M15.1794 16.2401L21.2196 22.2804C21.5126 22.5732 21.9874 22.5732 22.2804 22.2804C22.5732 21.9875 22.5732 21.5126 22.2804 21.2196L2.78032 1.71968C2.48743 1.42678 2.01256 1.42678 1.71967 1.71968C1.42678 2.01257 1.42678 2.48744 1.71967 2.78033L6.56436 7.62501C5.85175 8.12745 5.2689 8.70039 4.79815 9.27443C4.13164 10.0872 3.69231 10.8974 3.41896 11.5047C3.28192 11.8091 3.18553 12.0649 3.12249 12.248C3.09094 12.3395 3.05179 12.4657 3.05179 12.4657L3.0253 12.5578C3.0253 12.5578 2.91147 13.3036 3.55803 13.475C3.95818 13.5811 4.36876 13.3422 4.47519 12.9422L4.47666 12.9371L4.48768 12.8996C4.49835 12.8642 4.51576 12.8089 4.54072 12.7364C4.5907 12.5913 4.67062 12.3784 4.78678 12.1203C5.01982 11.6026 5.3944 10.9128 5.95801 10.2256C6.39544 9.69219 6.94819 9.15741 7.64392 8.70459L10.0103 11.071C8.9532 11.7342 8.25036 12.91 8.25036 14.25C8.25036 16.3211 9.9293 18 12.0004 18C13.3404 18 14.5162 17.2971 15.1794 16.2401ZM14.071 15.1317C13.7281 15.9362 12.9301 16.5 12.0004 16.5C10.7577 16.5 9.75036 15.4926 9.75036 14.25C9.75036 13.3203 10.3142 12.5223 11.1187 12.1793L14.071 15.1317ZM9.47943 6.2978L10.761 7.57937C11.1505 7.52778 11.5631 7.5 12.0003 7.5C15.0667 7.5 16.9286 8.86725 18.0425 10.2256C18.6062 10.9128 18.9807 11.6026 19.2137 12.1203C19.3299 12.3784 19.4098 12.5913 19.4598 12.7364C19.4847 12.8089 19.5021 12.8642 19.5128 12.8996L19.5238 12.9371L19.5254 12.9422L19.5258 12.9441C19.6328 13.3433 20.0427 13.581 20.4424 13.475C20.8428 13.3688 21.0813 12.9582 20.9752 12.5578L20.9748 12.556L20.9741 12.5537L20.9724 12.5475L20.9671 12.5285C20.9628 12.5131 20.9567 12.492 20.9487 12.4657C20.9328 12.4131 20.9096 12.3395 20.8781 12.248C20.8149 12.0649 20.7186 11.8091 20.5815 11.5047C20.3082 10.8974 19.8689 10.0872 19.2024 9.27443C17.856 7.63275 15.5928 6 12.0003 6C11.074 6 10.236 6.10854 9.47943 6.2978Z" fill="#B9BBBE"/>
</svg>
