<svg width="107" height="30" viewBox="0 0 107 30" fill="none" xmlns="http://www.w3.org/2000/svg">
<path d="M9.47852 13.4453C9.47852 12.8659 9.58919 12.3223 9.81055 11.8145C10.0319 11.3066 10.3314 10.8639 10.709 10.4863C11.0931 10.1022 11.5391 9.79948 12.0469 9.57812C12.5547 9.35677 13.0983 9.24609 13.6777 9.24609H20.1035V12.0488H13.6777C13.4824 12.0488 13.3001 12.0846 13.1309 12.1562C12.9616 12.2279 12.8118 12.3288 12.6816 12.459C12.5579 12.5827 12.4603 12.7292 12.3887 12.8984C12.3171 13.0677 12.2812 13.25 12.2812 13.4453C12.2812 13.6406 12.3171 13.8262 12.3887 14.002C12.4603 14.1712 12.5579 14.321 12.6816 14.4512C12.8118 14.5749 12.9616 14.6725 13.1309 14.7441C13.3001 14.8158 13.4824 14.8516 13.6777 14.8516H16.4805C17.0599 14.8516 17.6035 14.9622 18.1113 15.1836C18.6257 15.3984 19.0716 15.6979 19.4492 16.082C19.8333 16.4596 20.1328 16.9056 20.3477 17.4199C20.569 17.9277 20.6797 18.4714 20.6797 19.0508C20.6797 19.6302 20.569 20.1738 20.3477 20.6816C20.1328 21.1895 19.8333 21.6354 19.4492 22.0195C19.0716 22.3971 18.6257 22.6966 18.1113 22.918C17.6035 23.1393 17.0599 23.25 16.4805 23.25H10.2598V20.4473H16.4805C16.6758 20.4473 16.8581 20.4115 17.0273 20.3398C17.1966 20.2682 17.3431 20.1706 17.4668 20.0469C17.597 19.9167 17.6979 19.7669 17.7695 19.5977C17.8411 19.4284 17.877 19.2461 17.877 19.0508C17.877 18.8555 17.8411 18.6732 17.7695 18.5039C17.6979 18.3346 17.597 18.1882 17.4668 18.0645C17.3431 17.9342 17.1966 17.8333 17.0273 17.7617C16.8581 17.6901 16.6758 17.6543 16.4805 17.6543H13.6777C13.0983 17.6543 12.5547 17.5436 12.0469 17.3223C11.5391 17.1009 11.0931 16.8014 10.709 16.4238C10.3314 16.0397 10.0319 15.5938 9.81055 15.0859C9.58919 14.5716 9.47852 14.0247 9.47852 13.4453ZM33.0918 23.25C32.4473 23.25 31.8418 23.1296 31.2754 22.8887C30.709 22.6413 30.2109 22.306 29.7812 21.8828C29.3581 21.4531 29.0228 20.9551 28.7754 20.3887C28.5345 19.8223 28.4141 19.2168 28.4141 18.5723V15.4668H27.1152V12.8105H28.4141V8.63086H31.0703V12.8105H35.1133V15.4668H31.0703V18.5723C31.0703 18.8522 31.1224 19.1159 31.2266 19.3633C31.3307 19.6042 31.474 19.8158 31.6562 19.998C31.8385 20.1803 32.0534 20.3268 32.3008 20.4375C32.5482 20.5417 32.8118 20.5938 33.0918 20.5938H35.1133V23.25H33.0918ZM46.7246 17.9277C46.7246 18.709 46.5846 19.4382 46.3047 20.1152C46.0247 20.7858 45.6439 21.3685 45.1621 21.8633C44.6803 22.3516 44.1139 22.7389 43.4629 23.0254C42.8184 23.3053 42.125 23.4453 41.3828 23.4453C40.6471 23.4453 39.9538 23.3053 39.3027 23.0254C38.6582 22.7389 38.0918 22.3516 37.6035 21.8633C37.1217 21.3685 36.7409 20.7858 36.4609 20.1152C36.181 19.4382 36.041 18.709 36.041 17.9277C36.041 17.1335 36.181 16.3978 36.4609 15.7207C36.7409 15.0436 37.1217 14.4609 37.6035 13.9727C38.0918 13.4779 38.6582 13.0905 39.3027 12.8105C39.9538 12.5306 40.6471 12.3906 41.3828 12.3906C42.125 12.3906 42.8184 12.5241 43.4629 12.791C44.1139 13.0514 44.6803 13.4258 45.1621 13.9141C45.6439 14.3958 46.0247 14.9785 46.3047 15.6621C46.5846 16.3392 46.7246 17.0944 46.7246 17.9277ZM44.0391 17.9277C44.0391 17.498 43.9674 17.1107 43.8242 16.7656C43.6875 16.4141 43.4987 16.1146 43.2578 15.8672C43.0169 15.6133 42.7337 15.4212 42.4082 15.291C42.0892 15.1543 41.7474 15.0859 41.3828 15.0859C41.0182 15.0859 40.6732 15.1543 40.3477 15.291C40.0286 15.4212 39.7487 15.6133 39.5078 15.8672C39.2734 16.1146 39.0879 16.4141 38.9512 16.7656C38.8145 17.1107 38.7461 17.498 38.7461 17.9277C38.7461 18.3314 38.8145 18.7057 38.9512 19.0508C39.0879 19.3958 39.2734 19.6953 39.5078 19.9492C39.7487 20.2031 40.0286 20.4049 40.3477 20.5547C40.6732 20.6979 41.0182 20.7695 41.3828 20.7695C41.7474 20.7695 42.0892 20.7012 42.4082 20.5645C42.7337 20.4277 43.0169 20.2357 43.2578 19.9883C43.4987 19.7409 43.6875 19.4414 43.8242 19.0898C43.9674 18.7383 44.0391 18.3509 44.0391 17.9277ZM57.3398 14.8711L55.3867 16.834C55.2891 16.5605 55.1556 16.3164 54.9863 16.1016C54.8171 15.8802 54.625 15.6947 54.4102 15.5449C54.2018 15.3952 53.974 15.2812 53.7266 15.2031C53.4792 15.125 53.2253 15.0859 52.9648 15.0859C52.6003 15.0859 52.2552 15.1608 51.9297 15.3105C51.6107 15.4603 51.3307 15.6719 51.0898 15.9453C50.8555 16.2122 50.6699 16.5312 50.5332 16.9023C50.3965 17.2734 50.3281 17.6836 50.3281 18.1328C50.3281 18.4974 50.3965 18.8392 50.5332 19.1582C50.6699 19.4772 50.8555 19.7572 51.0898 19.998C51.3307 20.2389 51.6107 20.4277 51.9297 20.5645C52.2552 20.7012 52.6003 20.7695 52.9648 20.7695C53.2253 20.7695 53.4759 20.7337 53.7168 20.6621C53.9577 20.5905 54.1823 20.4896 54.3906 20.3594C54.6055 20.2227 54.7943 20.0599 54.957 19.8711C55.1263 19.6758 55.263 19.4609 55.3672 19.2266L57.3203 21.1895C57.0729 21.541 56.7865 21.8568 56.4609 22.1367C56.1419 22.4167 55.7936 22.6543 55.416 22.8496C55.0449 23.0449 54.651 23.1914 54.2344 23.2891C53.8242 23.3932 53.401 23.4453 52.9648 23.4453C52.2292 23.4453 51.5358 23.3086 50.8848 23.0352C50.2402 22.7552 49.6738 22.3743 49.1855 21.8926C48.7038 21.4108 48.3229 20.8477 48.043 20.2031C47.763 19.5586 47.623 18.8685 47.623 18.1328C47.623 17.332 47.763 16.5833 48.043 15.8867C48.3229 15.1901 48.7038 14.5846 49.1855 14.0703C49.6738 13.5495 50.2402 13.1393 50.8848 12.8398C51.5358 12.5404 52.2292 12.3906 52.9648 12.3906C53.401 12.3906 53.8275 12.446 54.2441 12.5566C54.6673 12.6673 55.0677 12.8301 55.4453 13.0449C55.8294 13.2533 56.181 13.5104 56.5 13.8164C56.8255 14.1224 57.1055 14.474 57.3398 14.8711ZM61.334 23.25H58.6484V8.63086H61.334V17.8496L65.3086 12.8105H68.375L64.9082 17.166L68.375 23.25H65.3086L63.1895 19.4512L61.334 21.9121V23.25ZM71.9492 27.2344V24.5488L73.4336 24.5684C73.694 24.5684 73.9447 24.526 74.1855 24.4414C74.4264 24.3568 74.6478 24.2396 74.8496 24.0898C75.0579 23.9401 75.2402 23.7611 75.3965 23.5527C75.5527 23.3509 75.6797 23.1296 75.7773 22.8887C75.4844 23.0124 75.1849 23.1361 74.8789 23.2598C74.5794 23.3835 74.2767 23.4453 73.9707 23.4453C73.3262 23.4453 72.7207 23.3314 72.1543 23.1035C71.5879 22.8757 71.0898 22.5534 70.6602 22.1367C70.237 21.7135 69.9017 21.2025 69.6543 20.6035C69.4134 19.998 69.293 19.321 69.293 18.5723V12.791H71.9492V18.5723C71.9492 18.9434 72.0013 19.2689 72.1055 19.5488C72.2161 19.8223 72.3626 20.0534 72.5449 20.2422C72.7272 20.4245 72.9388 20.5612 73.1797 20.6523C73.4271 20.7435 73.6908 20.7891 73.9707 20.7891C74.2441 20.7891 74.5013 20.7272 74.7422 20.6035C74.9896 20.4733 75.2044 20.304 75.3867 20.0957C75.569 19.8874 75.7122 19.653 75.8164 19.3926C75.9206 19.1257 75.9727 18.8522 75.9727 18.5723V12.791H78.6582V21.9316C78.6517 22.6673 78.5085 23.3574 78.2285 24.002C77.9486 24.6465 77.5645 25.2096 77.0762 25.6914C76.5944 26.1732 76.0312 26.554 75.3867 26.834C74.7422 27.1139 74.0521 27.2539 73.3164 27.2539L71.9492 27.2344Z" fill="url(#paint0_linear)"/>
<rect x="5.52271" y="5.95456" width="19.4545" height="19.4545" stroke="url(#paint1_linear)"/>
<rect x="0.75" y="1.18182" width="5.81818" height="5.81818" stroke="url(#paint2_linear)"/>
<rect x="23.9318" y="1.18182" width="5.81818" height="5.81818" stroke="url(#paint3_linear)"/>
<rect x="23.9318" y="23.6818" width="5.81818" height="5.81818" stroke="url(#paint4_linear)"/>
<rect x="0.75" y="23.6818" width="5.81818" height="5.81818" stroke="url(#paint5_linear)"/>
<defs>
<linearGradient id="paint0_linear" x1="58" y1="3.25" x2="58" y2="25.75" gradientUnits="userSpaceOnUse">
<stop stop-color="#7DBB02"/>
<stop offset="1" stop-color="#7DBB02"/>
</linearGradient>
<linearGradient id="paint1_linear" x1="15.25" y1="5.45456" x2="15.25" y2="25.9091" gradientUnits="userSpaceOnUse">
<stop stop-color="#7DBB02"/>
<stop offset="1" stop-color="#7DBB02"/>
</linearGradient>
<linearGradient id="paint2_linear" x1="3.65909" y1="0.681824" x2="3.65909" y2="7.50001" gradientUnits="userSpaceOnUse">
<stop stop-color="#7DBB02"/>
<stop offset="1" stop-color="#7DBB02"/>
</linearGradient>
<linearGradient id="paint3_linear" x1="26.8409" y1="0.681824" x2="26.8409" y2="7.50001" gradientUnits="userSpaceOnUse">
<stop stop-color="#7DBB02"/>
<stop offset="1" stop-color="#7DBB02"/>
</linearGradient>
<linearGradient id="paint4_linear" x1="26.8409" y1="23.1818" x2="26.8409" y2="30" gradientUnits="userSpaceOnUse">
<stop stop-color="#7DBB02"/>
<stop offset="1" stop-color="#7DBB02"/>
</linearGradient>
<linearGradient id="paint5_linear" x1="3.65909" y1="23.1818" x2="3.65909" y2="30" gradientUnits="userSpaceOnUse">
<stop stop-color="#7DBB02"/>
<stop offset="1" stop-color="#7DBB02"/>
</linearGradient>
</defs>
</svg>
